<?xml version="1.0" encoding="UTF-8"?><svg id="b" xmlns="http://www.w3.org/2000/svg" xmlns:xlink="http://www.w3.org/1999/xlink" viewBox="0 0 986.93 441.61"><defs><filter id="d" filterUnits="userSpaceOnUse"><feOffset dx="5.29" dy="5.29"/><feGaussianBlur result="e" stdDeviation="26.43"/><feFlood flood-color="#000" flood-opacity=".75"/><feComposite in2="e" operator="in"/><feComposite in="SourceGraphic"/></filter><filter id="f" filterUnits="userSpaceOnUse"><feOffset dx="5.29" dy="5.29"/><feGaussianBlur result="g" stdDeviation="26.43"/><feFlood flood-color="#000" flood-opacity=".75"/><feComposite in2="g" operator="in"/><feComposite in="SourceGraphic"/></filter><filter id="h" filterUnits="userSpaceOnUse"><feOffset dx="5.29" dy="5.29"/><feGaussianBlur result="i" stdDeviation="26.43"/><feFlood flood-color="#000" flood-opacity=".75"/><feComposite in2="i" operator="in"/><feComposite in="SourceGraphic"/></filter></defs><g id="c"><g><g style="filter:url(#d);"><g><path d="M517.04,440.3v-174.39h63.15c12.38,0,23.32,2.13,32.83,6.4,9.49,4.28,16.94,10.43,22.34,18.44,5.4,8.02,8.1,17.64,8.1,28.85s-2.49,21.28-7.47,29.21c-4.98,7.92-12.23,13.93-21.74,18.04-9.51,4.13-21.08,6.19-34.69,6.19h-34.62v67.26h-27.9Zm27.9-91.18h34.98c11.29,0,20.06-2.4,26.3-7.19,6.22-4.77,9.34-12.01,9.34-21.71s-3.2-17.03-9.6-22.19c-6.4-5.14-14.99-7.71-25.78-7.71h-35.24v58.79Z" style="fill:#fff;"/><rect x="518.34" y="267.22" width="126.42" height="174.39" style="fill:none;"/><path d="M662.53,440.3l67.76-174.39h30.26l69.49,174.39h-31.49l-16.08-41.62h-73.87l-15.45,41.62h-30.63Zm53.31-65.66h59.16l-30.16-75.97-29,75.97Z" style="fill:#fff;"/><rect x="663.83" y="267.22" width="167.52" height="174.39" style="fill:none;"/><path d="M896.08,440.3v-75.37l-61.55-99.02h31.89l44.24,72.12,43.95-72.12h31.02l-61.52,99.26v75.13h-28.03Z" style="fill:#fff;"/><rect x="835.83" y="267.22" width="151.1" height="174.39" style="fill:none;"/></g></g><g><g style="filter:url(#f);"><g><path d="M21.11,431.25L184.56,98.02H0V9.05H295.54V79.33L126.35,431.25H21.11Z" style="fill:#fff;"/><rect x="1.31" y="10.36" width="295.54" height="422.2" style="fill:none;"/></g></g><g style="filter:url(#h);"><g><path d="M225.85,440.3l-33.78-73.58c24.93-3.41,47.35-8.64,67.26-15.68,19.9-7.03,37.53-15.67,52.92-25.94,15.38-10.24,28.45-21.65,39.2-34.22,10.75-12.57,19.45-25.99,26.09-40.25-8.85,7.64-19.26,13.72-31.23,18.23-11.96,4.53-24.47,6.79-37.53,6.79-26.75,0-50.67-5.83-71.77-17.49-21.12-11.66-37.76-27.69-49.93-48.09-12.15-20.4-18.23-43.78-18.23-70.12s6.73-50.05,20.19-71.17c13.48-21.1,32.28-37.84,56.41-50.22C269.59,6.18,297.34,0,328.7,0s60.35,6.84,85.17,20.51c24.84,13.67,44.4,33.12,58.66,58.35,14.28,25.24,21.42,55.36,21.42,90.34s-6.84,69.46-20.51,99.81c-13.67,30.37-32.73,57.31-57.17,80.82-24.42,23.53-52.87,42.98-85.33,58.35-32.47,15.38-67.5,26.09-105.1,32.12m102.85-240.05c12.66,0,24.01-2.61,34.06-7.84,10.05-5.23,18-12.41,23.84-21.56,5.82-9.14,8.73-19.45,8.73-30.92s-2.87-21.97-8.6-30.92c-5.72-8.93-13.6-16.01-23.65-21.24-10.05-5.23-21.51-7.84-34.38-7.84s-24.33,2.61-34.38,7.84c-10.05,5.23-17.95,12.31-23.68,21.24-5.73,8.95-8.6,19.26-8.6,30.92s2.92,21.77,8.76,30.92c5.82,9.14,13.76,16.33,23.81,21.56,10.05,5.23,21.42,7.84,34.09,7.84" style="fill:#fff;"/><rect x="170.19" y="1.31" width="325.1" height="440.3" style="fill:none;"/></g></g></g></g></g></svg>